<?xml version="1.0" standalone="no"?>
<!DOCTYPE svg PUBLIC "-//W3C//DTD SVG 1.1//EN" 
  "http://www.w3.org/Graphics/SVG/1.1/DTD/svg11.dtd">
<svg width="199" height="199" viewBox="-0 -0 199 199"
     xmlns="http://www.w3.org/2000/svg" version="1.1">
  <g style="fill:none; stroke:black">
    <line x1="100.00" y1="100.00" x2="100.00" y2="130.00" />
    <line x1="100.00" y1="100.00" x2="71.47" y2="109.27" />
    <line x1="100.00" y1="100.00" x2="82.37" y2="75.73" />
    <line x1="100.00" y1="100.00" x2="117.63" y2="75.73" />
    <line x1="100.00" y1="100.00" x2="128.53" y2="109.27" />
    <path d="M 70.65,140.39 A 53.29,53.29 1 1 1 100.00,50.07" />
    <path d="M 52.52,84.57 A 53.29,53.29 1 1 1 147.48,84.57" />
    <path d="M 100.00,50.07 A 53.29,53.29 1 1 1 129.35,140.39" />
    <path d="M 147.48,84.57 A 53.29,53.29 1 1 1 70.65,140.39" />
    <path d="M 129.35,140.39 A 53.29,53.29 1 1 1 52.52,84.57" />
    <path d="M 70.65,140.39 A 85.42,85.42 1 0 0 100.00,130.00" />
    <path d="M 100.00,130.00 A 85.42,85.42 1 0 0 129.35,140.39" />
    <path d="M 52.52,84.57 A 85.42,85.42 1 0 0 71.47,109.27" />
    <path d="M 71.47,109.27 A 85.42,85.42 1 0 0 70.65,140.39" />
    <path d="M 100.00,50.07 A 85.42,85.42 1 0 0 82.37,75.73" />
    <path d="M 82.37,75.73 A 85.42,85.42 1 0 0 52.52,84.57" />
    <path d="M 147.48,84.57 A 85.42,85.42 1 0 0 117.63,75.73" />
    <path d="M 117.63,75.73 A 85.42,85.42 1 0 0 100.00,50.07" />
    <path d="M 129.35,140.39 A 85.42,85.42 1 0 0 128.53,109.27" />
    <path d="M 128.53,109.27 A 85.42,85.42 1 0 0 147.48,84.57" />
  </g>
  <g style="fill:blue; stroke:none">
    <circle cx="100.00" cy="100.00" r="4.8" />
    <circle cx="100.00" cy="130.00" r="4.8" />
    <circle cx="71.47" cy="109.27" r="4.8" />
    <circle cx="82.37" cy="75.73" r="4.8" />
    <circle cx="117.63" cy="75.73" r="4.8" />
    <circle cx="128.53" cy="109.27" r="4.8" />
    <circle cx="70.65" cy="140.39" r="4.8" />
    <circle cx="52.52" cy="84.57" r="4.8" />
    <circle cx="100.00" cy="50.07" r="4.8" />
    <circle cx="147.48" cy="84.57" r="4.8" />
    <circle cx="129.35" cy="140.39" r="4.8" />
  </g>
</svg>
