<?xml version="1.0" standalone="no"?>
<!DOCTYPE svg PUBLIC "-//W3C//DTD SVG 1.1//EN" 
  "http://www.w3.org/Graphics/SVG/1.1/DTD/svg11.dtd">
<svg width="169" height="169" viewBox="-0 -0 169 169"
     xmlns="http://www.w3.org/2000/svg" version="1.1">
  <g style="fill:none; stroke:black">
    <line x1="85.00" y1="85.00" x2="85.00" y2="110.00" />
    <line x1="85.00" y1="85.00" x2="61.22" y2="92.73" />
    <line x1="85.00" y1="85.00" x2="70.31" y2="64.77" />
    <line x1="85.00" y1="85.00" x2="99.69" y2="64.77" />
    <line x1="85.00" y1="85.00" x2="108.78" y2="92.73" />
    <path d="M 60.54,118.66 A 44.41,44.41 1 1 1 85.00,43.39" />
    <path d="M 45.43,72.14 A 44.41,44.41 1 1 1 124.57,72.14" />
    <path d="M 85.00,43.39 A 44.41,44.41 1 1 1 109.46,118.66" />
    <path d="M 124.57,72.14 A 44.41,44.41 1 1 1 60.54,118.66" />
    <path d="M 109.46,118.66 A 44.41,44.41 1 1 1 45.43,72.14" />
    <path d="M 60.54,118.66 A 71.18,71.18 1 0 0 85.00,110.00" />
    <path d="M 85.00,110.00 A 71.18,71.18 1 0 0 109.46,118.66" />
    <path d="M 45.43,72.14 A 71.18,71.18 1 0 0 61.22,92.73" />
    <path d="M 61.22,92.73 A 71.18,71.18 1 0 0 60.54,118.66" />
    <path d="M 85.00,43.39 A 71.18,71.18 1 0 0 70.31,64.77" />
    <path d="M 70.31,64.77 A 71.18,71.18 1 0 0 45.43,72.14" />
    <path d="M 124.57,72.14 A 71.18,71.18 1 0 0 99.69,64.77" />
    <path d="M 99.69,64.77 A 71.18,71.18 1 0 0 85.00,43.39" />
    <path d="M 109.46,118.66 A 71.18,71.18 1 0 0 108.78,92.73" />
    <path d="M 108.78,92.73 A 71.18,71.18 1 0 0 124.57,72.14" />
  </g>
  <g style="fill:red; stroke:black">
    <circle cx="85.00" cy="85.00" r="5.0" />
    <circle cx="85.00" cy="110.00" r="5.0" />
    <circle cx="61.22" cy="92.73" r="5.0" />
    <circle cx="70.31" cy="64.77" r="5.0" />
    <circle cx="99.69" cy="64.77" r="5.0" />
    <circle cx="108.78" cy="92.73" r="5.0" />
    <circle cx="60.54" cy="118.66" r="5.0" />
    <circle cx="45.43" cy="72.14" r="5.0" />
    <circle cx="85.00" cy="43.39" r="5.0" />
    <circle cx="124.57" cy="72.14" r="5.0" />
    <circle cx="109.46" cy="118.66" r="5.0" />
  </g>
</svg>
