<?xml version="1.0" standalone="no"?>
<!DOCTYPE svg PUBLIC "-//W3C//DTD SVG 1.1//EN" 
  "http://www.w3.org/Graphics/SVG/1.1/DTD/svg11.dtd">
<svg width="389" height="389" viewBox="-0 -0 389 389"
     xmlns="http://www.w3.org/2000/svg" version="1.1">
  <g style="fill:none; stroke:black">
    <line x1="195.00" y1="206.94" x2="195.00" y2="232.03" />
    <line x1="184.66" y1="189.03" x2="162.93" y2="176.48" />
    <line x1="205.34" y1="189.03" x2="227.07" y2="176.48" />
    <line x1="176.05" y1="205.94" x2="106.61" y2="246.03" />
    <line x1="195.00" y1="173.11" x2="195.00" y2="92.94" />
    <line x1="213.95" y1="205.94" x2="283.39" y2="246.03" />
    <path d="M 184.66,189.03 A 39.94,39.94 1 0 0 195.00,206.94" />
    <path d="M 205.34,189.03 A 39.94,39.94 1 0 0 184.66,189.03" />
    <path d="M 195.00,206.94 A 39.94,39.94 1 0 0 205.34,189.03" />
    <path d="M 106.61,246.03 A 96.75,96.75 1 1 1 195.00,92.94" />
    <path d="M 195.00,92.94 A 96.75,96.75 1 1 1 283.39,246.03" />
    <path d="M 283.39,246.03 A 96.75,96.75 1 1 1 106.61,246.03" />
    <path d="M 176.05,205.94 A 181.33,181.33 1 0 0 195.00,206.94" />
    <path d="M 195.00,206.94 A 181.33,181.33 1 0 0 213.95,205.94" />
    <path d="M 195.00,173.11 A 181.33,181.33 1 0 0 184.66,189.03" />
    <path d="M 184.66,189.03 A 181.33,181.33 1 0 0 176.05,205.94" />
    <path d="M 213.95,205.94 A 181.33,181.33 1 0 0 205.34,189.03" />
    <path d="M 205.34,189.03 A 181.33,181.33 1 0 0 195.00,173.11" />
    <path d="M 162.93,176.48 A 39.64,39.64 1 0 0 176.05,205.94" />
    <path d="M 176.05,205.94 A 39.64,39.64 1 0 0 195.00,232.03" />
    <path d="M 227.07,176.48 A 39.64,39.64 1 0 0 195.00,173.11" />
    <path d="M 195.00,173.11 A 39.64,39.64 1 0 0 162.93,176.48" />
    <path d="M 195.00,232.03 A 39.64,39.64 1 0 0 213.95,205.94" />
    <path d="M 213.95,205.94 A 39.64,39.64 1 0 0 227.07,176.48" />
    <path d="M 106.61,246.03 A 57.58,57.58 1 0 0 195.00,232.03" />
    <path d="M 195.00,232.03 A 57.58,57.58 1 0 0 283.39,246.03" />
    <path d="M 195.00,92.94 A 57.58,57.58 1 0 0 162.93,176.48" />
    <path d="M 162.93,176.48 A 57.58,57.58 1 0 0 106.61,246.03" />
    <path d="M 283.39,246.03 A 57.58,57.58 1 0 0 227.07,176.48" />
    <path d="M 227.07,176.48 A 57.58,57.58 1 0 0 195.00,92.94" />
  </g>
  <g style="fill:red; stroke:black">
    <circle cx="195.00" cy="206.94" r="5.0" />
    <circle cx="184.66" cy="189.03" r="5.0" />
    <circle cx="205.34" cy="189.03" r="5.0" />
    <circle cx="176.05" cy="205.94" r="5.0" />
    <circle cx="195.00" cy="173.11" r="5.0" />
    <circle cx="213.95" cy="205.94" r="5.0" />
    <circle cx="195.00" cy="232.03" r="5.0" />
    <circle cx="162.93" cy="176.48" r="5.0" />
    <circle cx="227.07" cy="176.48" r="5.0" />
    <circle cx="106.61" cy="246.03" r="5.0" />
    <circle cx="195.00" cy="92.94" r="5.0" />
    <circle cx="283.39" cy="246.03" r="5.0" />
  </g>
</svg>
