<?xml version="1.0" standalone="no"?>
<!DOCTYPE svg PUBLIC "-//W3C//DTD SVG 1.1//EN" 
  "http://www.w3.org/Graphics/SVG/1.1/DTD/svg11.dtd">
<svg width="121" height="121" viewBox="-0 -0 121 121"
     xmlns="http://www.w3.org/2000/svg" version="1.1">
  <g style="fill:none; stroke:black">
    <line x1="61.00" y1="80.89" x2="61.00" y2="105.89" />
    <line x1="42.08" y1="67.15" x2="18.30" y2="74.87" />
    <line x1="49.31" y1="44.91" x2="34.61" y2="24.68" />
    <line x1="72.69" y1="44.91" x2="87.39" y2="24.68" />
    <line x1="79.92" y1="67.15" x2="103.70" y2="74.87" />
    <path d="M 49.31,44.91 A 28.28,28.28 1 0 0 61.00,80.89" />
    <path d="M 72.69,44.91 A 28.28,28.28 1 0 0 42.08,67.15" />
    <path d="M 79.92,67.15 A 28.28,28.28 1 0 0 49.31,44.91" />
    <path d="M 61.00,80.89 A 28.28,28.28 1 0 0 72.69,44.91" />
    <path d="M 42.08,67.15 A 28.28,28.28 1 0 0 79.92,67.15" />
    <path d="M 18.30,74.87 A 28.89,28.89 1 0 0 61.00,105.89" />
    <path d="M 34.61,24.68 A 28.89,28.89 1 0 0 18.30,74.87" />
    <path d="M 87.39,24.68 A 28.89,28.89 1 0 0 34.61,24.68" />
    <path d="M 103.70,74.87 A 28.89,28.89 1 0 0 87.39,24.68" />
    <path d="M 61.00,105.89 A 28.89,28.89 1 0 0 103.70,74.87" />
  </g>
  <g style="fill:red; stroke:black">
    <circle cx="61.00" cy="80.89" r="5.0" />
    <circle cx="42.08" cy="67.15" r="5.0" />
    <circle cx="49.31" cy="44.91" r="5.0" />
    <circle cx="72.69" cy="44.91" r="5.0" />
    <circle cx="79.92" cy="67.15" r="5.0" />
    <circle cx="61.00" cy="105.89" r="5.0" />
    <circle cx="18.30" cy="74.87" r="5.0" />
    <circle cx="34.61" cy="24.68" r="5.0" />
    <circle cx="87.39" cy="24.68" r="5.0" />
    <circle cx="103.70" cy="74.87" r="5.0" />
  </g>
</svg>
