<?xml version="1.0" standalone="no"?>
<!DOCTYPE svg PUBLIC "-//W3C//DTD SVG 1.1//EN" 
  "http://www.w3.org/Graphics/SVG/1.1/DTD/svg11.dtd">
<svg width="147" height="147" viewBox="-0 -0 147 147"
     xmlns="http://www.w3.org/2000/svg" version="1.1">
  <g style="fill:none; stroke:black">
    <line x1="74.00" y1="93.89" x2="74.00" y2="118.89" />
    <line x1="55.08" y1="80.15" x2="31.30" y2="87.87" />
    <line x1="62.31" y1="57.91" x2="47.61" y2="37.68" />
    <line x1="85.69" y1="57.91" x2="100.39" y2="37.68" />
    <line x1="92.92" y1="80.15" x2="116.70" y2="87.87" />
    <path d="M 55.08,80.15 A 111.87,111.87 1 0 0 74.00,93.89" />
    <path d="M 62.31,57.91 A 111.87,111.87 1 0 0 55.08,80.15" />
    <path d="M 85.69,57.91 A 111.87,111.87 1 0 0 62.31,57.91" />
    <path d="M 92.92,80.15 A 111.87,111.87 1 0 0 85.69,57.91" />
    <path d="M 74.00,93.89 A 111.87,111.87 1 0 0 92.92,80.15" />
    <path d="M 74.00,118.89 A 43.65,43.65 1 1 1 47.61,37.68" />
    <path d="M 31.30,87.87 A 43.65,43.65 1 1 1 100.39,37.68" />
    <path d="M 47.61,37.68 A 43.65,43.65 1 1 1 116.70,87.87" />
    <path d="M 100.39,37.68 A 43.65,43.65 1 1 1 74.00,118.89" />
    <path d="M 116.70,87.87 A 43.65,43.65 1 1 1 31.30,87.87" />
  </g>
  <g style="fill:red; stroke:black">
    <circle cx="74.00" cy="93.89" r="5.0" />
    <circle cx="55.08" cy="80.15" r="5.0" />
    <circle cx="62.31" cy="57.91" r="5.0" />
    <circle cx="85.69" cy="57.91" r="5.0" />
    <circle cx="92.92" cy="80.15" r="5.0" />
    <circle cx="74.00" cy="118.89" r="5.0" />
    <circle cx="31.30" cy="87.87" r="5.0" />
    <circle cx="47.61" cy="37.68" r="5.0" />
    <circle cx="100.39" cy="37.68" r="5.0" />
    <circle cx="116.70" cy="87.87" r="5.0" />
  </g>
</svg>
